<?xml version="1.0" standalone="no"?><!DOCTYPE svg PUBLIC "-//W3C//DTD SVG 1.1//EN" "http://www.w3.org/Graphics/SVG/1.1/DTD/svg11.dtd"><svg t="1610541872845" class="icon" viewBox="0 0 1448 1024" version="1.1" xmlns="http://www.w3.org/2000/svg" p-id="697" xmlns:xlink="http://www.w3.org/1999/xlink" width="282.8125" height="200"><defs><style type="text/css"></style></defs><path d="M1146.130018 510.021838c0-55.904586-70.009743-108.884932-177.346547-141.739627 24.770032-109.400974 13.761129-196.440114-34.746851-224.3064-11.180917-6.536536-24.25399-9.63279-38.531161-9.632791v38.359147c7.912649 0 14.277171 1.548127 19.609609 4.472367 23.393919 13.417101 33.542752 64.505291 25.630103 130.214682-1.892155 16.169326-4.988409 33.198723-8.77272 50.572148-33.714766-8.256677-70.525785-14.621199-109.22896-18.749538-23.221905-31.82261-47.30388-60.720981-71.55787-86.007055 56.0766-52.120275 108.712918-80.674618 144.491853-80.674618V134.171006c-47.30388 0-109.22896 33.714766-171.842097 92.199563-62.613136-58.140769-124.538216-91.511507-171.842096-91.511506v38.359146c35.606921 0 88.415253 28.382328 144.491853 80.158576-24.081975 25.286074-48.163951 54.012431-71.041828 85.835041-38.875189 4.128339-75.686209 10.492861-109.400974 18.921552-3.956325-17.201411-6.880564-33.88678-8.944734-49.884092-8.084663-65.70939 1.892155-116.797581 25.11406-130.386696 5.160423-3.096254 11.868974-4.472367 19.781623-4.472367V135.031077c-14.449185 0-27.522258 3.096254-38.875189 9.63279-48.335965 27.866286-59.172854 114.733412-34.230808 223.790358-106.992777 33.026709-176.658492 85.835041-176.658492 141.567613 0 55.904586 70.009743 108.884932 177.346548 141.739627-24.770032 109.400974-13.761129 196.440114 34.74685 224.3064 11.180917 6.536536 24.25399 9.63279 38.703175 9.63279 47.30388 0 109.22896-33.714766 171.842097-92.199563 62.613136 58.140769 124.538216 91.511507 171.842096 91.511507 14.449185 0 27.522258-3.096254 38.875189-9.632791 48.335965-27.866286 59.172854-114.733412 34.230808-223.790357 106.648749-32.854695 176.314463-85.835041 176.314463-141.567613z m-223.962371-114.733412c-6.364522 22.18982-14.277171 45.067697-23.221905 67.945574-7.052579-13.761129-14.449185-27.522258-22.533849-41.283387-7.912649-13.761129-16.341341-27.178229-24.770032-40.251302 24.426004 3.612296 47.991937 8.084663 70.525786 13.589115z m-78.782463 183.195028c-13.417101 23.221905-27.178229 45.239711-41.455401 65.70939-25.630102 2.236183-51.604233 3.440282-77.750378 3.440282-25.974131 0-51.948261-1.204099-77.406349-3.268268-14.277171-20.469679-28.210314-42.315471-41.627415-65.365362-13.073072-22.533848-24.942046-45.411725-35.778935-68.461616 10.664875-23.049891 22.705863-46.099782 35.606921-68.63363 13.417101-23.221905 27.178229-45.239711 41.4554-65.70939 25.630102-2.236183 51.604233-3.440282 77.750378-3.440282 25.974131 0 51.948261 1.204099 77.40635 3.268268 14.277171 20.469679 28.210314 42.315471 41.627415 65.365362 13.073072 22.533848 24.942046 45.411725 35.778935 68.461616-10.836889 23.049891-22.705863 46.099782-35.606921 68.63363z m55.560558-22.361835c9.288762 23.049891 17.201411 46.099782 23.737947 68.461616-22.533848 5.504452-46.271796 10.148833-70.869814 13.761129 8.428691-13.245087 16.857383-26.834201 24.770032-40.767344 7.912649-13.761129 15.309256-27.694272 22.361835-41.455401zM724.523434 739.660675c-15.997312-16.513355-31.994625-34.918864-47.819923-55.044515 15.48127 0.688056 31.306568 1.204099 47.30388 1.204099 16.169326 0 32.166639-0.344028 47.819923-1.204099-15.48127 20.125651-31.478582 38.531161-47.30388 55.044515z m-127.978499-101.316311c-24.426004-3.612296-47.991937-8.084663-70.525785-13.589115 6.364522-22.18982 14.277171-45.067697 23.221905-67.945573 7.052579 13.761129 14.449185 27.522258 22.533848 41.283386 8.084663 13.761129 16.341341 27.178229 24.770032 40.251302zM723.663363 280.383c15.997312 16.513355 31.994625 34.918864 47.819923 55.044516-15.48127-0.688056-31.306568-1.204099-47.303881-1.204099-16.169326 0-32.166639 0.344028-47.819922 1.204099 15.48127-20.125651 31.478582-38.531161 47.30388-55.044516z m-127.290442 101.316311c-8.428691 13.245087-16.857383 26.834201-24.770032 40.767344-7.912649 13.761129-15.309256 27.522258-22.361834 41.283387-9.288762-23.049891-17.201411-46.099782-23.737947-68.461616 22.533848-5.332437 46.271796-9.976818 70.869813-13.589115z m-155.67277 215.361667c-60.892995-25.974131-100.284226-60.032925-100.284226-87.03914 0-27.006215 39.391231-61.237023 100.284226-87.03914 14.793214-6.364522 30.96254-12.040988 47.647909-17.373425 9.804804 33.714766 22.705863 68.805644 38.703175 104.756593-15.825298 35.778935-28.554342 70.697799-38.187133 104.240551-17.029397-5.332437-33.198723-11.180917-48.163951-17.545439zM533.243743 842.869142c-23.393919-13.417101-33.542752-64.505291-25.630103-130.214682 1.892155-16.169326 4.988409-33.198723 8.77272-50.572149 33.714766 8.256677 70.525785 14.621199 109.22896 18.749538 23.221905 31.82261 47.30388 60.720981 71.55787 86.007056-56.0766 52.120275-108.712918 80.674618-144.491853 80.674618-7.740635-0.172014-14.277171-1.720141-19.437594-4.644381z m408.01747-131.074753c8.084663 65.70939-1.892155 116.797581-25.11406 130.386696-5.160423 3.096254-11.868974 4.472367-19.781623 4.472367-35.606921 0-88.415253-28.382328-144.491853-80.158575 24.081975-25.286074 48.163951-54.012431 71.041828-85.835042 38.875189-4.128339 75.686209-10.492861 109.400974-18.921552 3.956325 17.373425 7.052579 34.058794 8.944734 50.056106z m66.225432-114.733411c-14.793214 6.364522-30.96254 12.040988-47.647908 17.373425-9.804804-33.714766-22.705863-68.805644-38.703175-104.756593 15.825298-35.778935 28.554342-70.697799 38.187132-104.240551 17.029397 5.332437 33.198723 11.180917 48.335965 17.545439 60.892995 25.974131 100.284226 60.032925 100.284227 87.03914-0.172014 27.006215-39.563245 61.237023-100.456241 87.03914zM551.821267 134.859063z" fill="#39CCCC" p-id="698"></path><path d="M724.007391 510.021838m-78.610448 0a78.610449 78.610449 0 1 0 157.220897 0 78.610449 78.610449 0 1 0-157.220897 0Z" fill="#39CCCC" p-id="699"></path></svg>
